<svg id="svg" version="1.1" width="640" height="1000" xmlns="http://www.w3.org/2000/svg" xmlns:xlink="http://www.w3.org/1999/xlink" style="display: block;"><g id="svgg"><path id="path0" d="" stroke="none" fill="#808080" fill-rule="evenodd"></path><path id="path1" d="" stroke="none" fill="#782010" fill-rule="evenodd"></path><path id="path2" d="M194.374 1.094 C 194.374 1.352,192.053 1.590,189.218 1.623 C 186.382 1.656,182.094 1.847,179.688 2.049 C 175.715 2.381,174.352 2.569,169.375 3.470 C 168.516 3.626,166.969 3.860,165.938 3.989 C 164.906 4.119,163.359 4.419,162.500 4.655 C 161.641 4.892,160.234 5.189,159.375 5.316 C 142.963 7.741,115.908 18.164,97.813 29.034 C 92.686 32.114,81.809 39.309,81.250 39.991 C 81.078 40.201,78.547 42.230,75.625 44.500 C 72.703 46.770,69.631 49.358,68.797 50.251 C 67.964 51.144,67.100 51.875,66.878 51.875 C 66.542 51.875,54.552 63.834,50.306 68.405 C 47.978 70.911,39.594 81.540,37.831 84.219 C 36.870 85.680,35.840 86.875,35.542 86.875 C 35.244 86.875,35.000 87.206,35.000 87.610 C 35.000 88.240,32.209 92.761,28.081 98.816 C 26.838 100.640,19.225 115.623,16.364 121.875 C 13.195 128.803,5.209 153.402,5.096 156.586 C 5.086 156.869,4.589 159.389,3.068 166.875 C 2.754 168.422,2.342 171.094,2.153 172.813 C 1.963 174.531,1.571 177.766,1.282 180.000 C 0.604 185.220,0.678 170.138,0.667 305.313 L 0.658 424.063 88.610 512.223 C 136.984 560.711,177.336 600.753,178.281 601.205 C 179.227 601.657,180.000 602.235,180.000 602.489 C 180.000 602.743,181.336 603.623,182.969 604.444 C 184.602 605.266,186.078 606.093,186.250 606.284 C 186.972 607.083,194.139 610.384,195.000 610.313 C 195.516 610.271,196.219 610.421,196.563 610.647 C 198.417 611.868,205.160 610.658,210.258 608.191 C 220.325 603.318,231.161 592.798,381.424 442.025 L 399.410 423.978 399.179 303.708 C 399.051 237.559,398.752 182.172,398.513 180.625 C 398.275 179.078,397.965 176.688,397.826 175.313 C 397.687 173.938,397.437 172.109,397.271 171.250 C 397.105 170.391,396.789 168.563,396.570 167.188 C 396.350 165.813,396.033 163.984,395.864 163.125 C 395.696 162.266,395.401 160.719,395.209 159.688 C 394.671 156.799,394.479 155.938,394.375 155.938 C 394.262 155.938,394.003 154.801,393.492 152.063 C 393.286 150.964,392.819 149.276,392.453 148.313 C 392.087 147.350,391.807 146.492,391.831 146.406 C 391.855 146.320,391.853 146.180,391.827 146.094 C 391.729 145.774,391.313 144.016,390.998 142.592 C 390.819 141.784,390.346 140.729,389.947 140.249 C 389.548 139.768,389.404 139.375,389.627 139.375 C 389.850 139.375,389.596 138.531,389.063 137.500 C 388.529 136.469,388.251 135.625,388.443 135.625 C 388.636 135.625,388.480 135.038,388.096 134.320 C 387.712 133.603,387.278 132.358,387.132 131.554 C 386.799 129.715,382.623 119.891,381.836 119.094 C 381.514 118.767,381.250 118.014,381.250 117.420 C 381.250 116.825,380.878 115.968,380.424 115.513 C 379.970 115.059,379.577 114.464,379.551 114.192 C 379.437 112.986,377.922 110.000,377.424 110.000 C 377.122 110.000,376.875 109.494,376.875 108.875 C 376.875 108.256,376.622 107.483,376.312 107.156 C 376.003 106.830,374.565 104.323,373.117 101.585 C 371.669 98.847,369.854 95.753,369.085 94.710 C 368.315 93.666,367.511 92.320,367.300 91.719 C 367.088 91.117,366.624 90.625,366.270 90.625 C 365.915 90.625,365.625 90.203,365.625 89.688 C 365.625 89.172,365.063 88.188,364.375 87.500 C 363.688 86.813,363.295 86.250,363.502 86.250 C 363.710 86.250,363.077 85.306,362.096 84.152 C 359.159 80.696,358.300 79.584,358.050 78.911 C 357.757 78.122,353.811 73.444,349.821 69.154 C 348.175 67.385,346.206 65.025,345.446 63.911 C 344.685 62.796,343.854 61.882,343.599 61.879 C 342.926 61.873,340.000 59.241,340.000 58.643 C 340.000 58.122,337.454 55.647,334.644 53.438 C 333.770 52.750,331.977 51.203,330.661 50.000 C 326.871 46.535,322.411 42.834,321.714 42.575 C 321.041 42.325,319.929 41.466,316.473 38.529 C 315.319 37.548,314.375 36.915,314.375 37.123 C 314.375 37.330,313.852 37.008,313.214 36.406 C 312.575 35.805,310.001 34.047,307.494 32.500 C 304.987 30.953,301.981 29.055,300.815 28.281 C 299.649 27.508,298.426 26.875,298.097 26.875 C 297.769 26.875,297.500 26.577,297.500 26.213 C 297.500 25.849,297.187 25.744,296.805 25.981 C 296.423 26.217,295.931 26.140,295.711 25.809 C 295.492 25.479,293.484 24.285,291.250 23.156 C 289.016 22.028,286.133 20.557,284.844 19.887 C 283.555 19.218,282.496 18.899,282.490 19.179 C 282.485 19.459,282.274 19.369,282.022 18.981 C 281.471 18.133,270.916 13.657,268.876 13.405 C 268.087 13.308,267.080 12.930,266.640 12.564 C 266.200 12.199,265.299 11.816,264.638 11.713 C 263.978 11.610,263.067 11.295,262.615 11.013 C 262.162 10.731,261.633 10.659,261.439 10.853 C 261.245 11.047,260.490 10.874,259.762 10.469 C 259.033 10.063,258.227 9.687,257.969 9.632 C 257.711 9.576,257.289 9.453,257.031 9.358 C 256.773 9.263,256.281 9.119,255.938 9.039 C 255.594 8.960,255.102 8.827,254.844 8.744 C 254.586 8.661,254.164 8.534,253.906 8.462 C 253.648 8.389,253.016 8.152,252.500 7.934 C 251.984 7.716,250.719 7.412,249.688 7.258 C 248.656 7.104,247.813 6.933,247.813 6.879 C 247.813 6.824,247.391 6.687,246.875 6.574 C 246.359 6.461,245.094 6.184,244.063 5.958 C 243.031 5.732,241.484 5.443,240.625 5.316 C 239.766 5.189,238.359 4.899,237.500 4.672 C 236.641 4.445,235.094 4.146,234.063 4.009 C 233.031 3.871,231.203 3.604,230.000 3.415 C 228.797 3.226,226.758 3.019,225.469 2.954 C 224.180 2.889,223.125 2.667,223.125 2.459 C 223.125 2.064,220.236 1.877,211.095 1.680 C 208.087 1.616,205.626 1.352,205.626 1.094 C 205.625 0.836,203.094 0.625,200.000 0.625 C 196.906 0.625,194.375 0.836,194.374 1.094 M215.591 156.830 C 240.025 161.455,261.331 171.083,278.902 185.441 L 283.117 188.885 281.090 191.249 C 277.120 195.878,267.829 206.593,266.186 208.438 C 263.955 210.940,247.525 229.887,243.157 234.994 C 241.249 237.224,239.406 239.357,239.063 239.734 C 238.719 240.110,235.063 244.310,230.938 249.067 C 219.313 262.472,213.887 268.709,210.007 273.125 C 208.043 275.359,204.996 278.875,203.236 280.938 C 201.475 283.000,198.351 286.656,196.292 289.063 L 192.549 293.438 198.618 293.856 C 201.956 294.086,207.078 294.428,210.000 294.616 C 219.501 295.227,252.494 297.514,265.625 298.471 C 272.672 298.984,282.656 299.689,287.813 300.036 C 292.969 300.383,300.984 300.930,305.625 301.251 C 310.266 301.572,316.875 302.008,320.313 302.220 C 330.458 302.845,329.659 302.583,329.897 305.362 C 330.336 310.485,326.999 327.306,323.459 337.813 C 309.418 379.480,273.602 414.299,232.813 425.934 C 230.750 426.522,228.359 427.241,227.500 427.531 C 225.945 428.056,216.728 429.957,213.750 430.367 C 204.475 431.645,200.797 431.907,192.188 431.903 C 169.462 431.891,148.862 426.928,129.214 416.729 C 122.571 413.281,110.923 406.183,110.000 405.021 C 109.828 404.804,108.703 403.944,107.500 403.108 C 76.074 381.280,53.271 334.257,53.795 292.359 C 54.257 255.432,68.791 221.068,94.974 194.997 C 117.588 172.479,143.803 160.125,179.063 155.368 C 184.901 154.580,208.747 155.535,215.591 156.830 M364.685 164.844 C 364.522 166.820,364.105 172.727,363.757 177.969 C 363.409 183.211,362.835 191.789,362.480 197.031 C 362.125 202.273,361.578 210.359,361.264 215.000 C 359.668 238.588,358.638 253.134,358.361 256.026 C 358.053 259.224,358.029 259.255,353.557 262.208 C 341.346 270.272,332.211 280.693,327.553 291.875 C 326.765 293.766,325.888 295.560,325.605 295.862 C 325.110 296.388,319.329 296.072,292.500 294.050 C 286.141 293.571,276.016 292.867,270.000 292.487 C 263.984 292.106,255.969 291.533,252.188 291.212 C 248.406 290.892,243.571 290.628,241.443 290.627 C 236.705 290.625,236.811 290.799,237.841 284.688 C 242.138 259.186,249.419 242.676,264.714 223.750 C 289.740 192.783,318.417 173.757,354.688 164.059 C 358.125 163.140,361.500 162.151,362.188 161.861 C 364.754 160.780,364.996 161.069,364.685 164.844 M145.313 219.060 C 130.897 222.994,122.628 236.556,126.564 249.811 C 134.334 275.975,171.578 273.194,175.282 246.173 C 177.511 229.908,160.838 214.823,145.313 219.060 " stroke="none" fill="#f0280a" fill-rule="evenodd"></path><path id="path3" d="M316.250 38.352 C 316.250 38.524,317.094 39.266,318.125 40.000 C 319.156 40.734,320.000 41.194,320.000 41.023 C 320.000 40.851,319.156 40.109,318.125 39.375 C 317.094 38.641,316.250 38.181,316.250 38.352 M68.398 50.156 L 66.563 52.188 68.594 50.352 C 69.711 49.342,70.625 48.428,70.625 48.321 C 70.625 47.838,70.109 48.263,68.398 50.156 M58.423 59.531 L 53.438 64.688 58.594 59.702 C 63.383 55.072,64.035 54.375,63.579 54.375 C 63.485 54.375,61.165 56.695,58.423 59.531 M362.645 191.250 C 362.645 192.453,362.774 192.945,362.931 192.344 C 363.088 191.742,363.088 190.758,362.931 190.156 C 362.774 189.555,362.645 190.047,362.645 191.250 M361.395 209.375 C 361.395 210.578,361.524 211.070,361.681 210.469 C 361.838 209.867,361.838 208.883,361.681 208.281 C 361.524 207.680,361.395 208.172,361.395 209.375 M360.145 228.125 C 360.145 229.328,360.274 229.820,360.431 229.219 C 360.588 228.617,360.588 227.633,360.431 227.031 C 360.274 226.430,360.145 226.922,360.145 228.125 M359.520 235.625 C 359.520 236.828,359.649 237.320,359.806 236.719 C 359.963 236.117,359.963 235.133,359.806 234.531 C 359.649 233.930,359.520 234.422,359.520 235.625 M358.270 254.375 C 358.270 255.578,358.399 256.070,358.556 255.469 C 358.713 254.867,358.713 253.883,358.556 253.281 C 358.399 252.680,358.270 253.172,358.270 254.375 M149.226 268.567 C 150.003 268.717,151.128 268.711,151.726 268.554 C 152.324 268.398,151.688 268.276,150.313 268.283 C 148.938 268.290,148.449 268.418,149.226 268.567 M237.032 289.375 C 237.187 289.952,238.106 290.346,239.423 290.401 C 241.383 290.481,241.405 290.463,239.690 290.188 C 238.659 290.023,237.583 289.561,237.298 289.162 C 236.948 288.673,236.862 288.742,237.032 289.375 M256.406 291.681 C 257.008 291.838,257.992 291.838,258.594 291.681 C 259.195 291.524,258.703 291.395,257.500 291.395 C 256.297 291.395,255.805 291.524,256.406 291.681 M275.156 292.931 C 275.758 293.088,276.742 293.088,277.344 292.931 C 277.945 292.774,277.453 292.645,276.250 292.645 C 275.047 292.645,274.555 292.774,275.156 292.931 M208.281 294.806 C 208.883 294.963,209.867 294.963,210.469 294.806 C 211.070 294.649,210.578 294.520,209.375 294.520 C 208.172 294.520,207.680 294.649,208.281 294.806 M300.781 294.806 C 301.383 294.963,302.367 294.963,302.969 294.806 C 303.570 294.649,303.078 294.520,301.875 294.520 C 300.672 294.520,300.180 294.649,300.781 294.806 M226.406 296.056 C 227.008 296.213,227.992 296.213,228.594 296.056 C 229.195 295.899,228.703 295.770,227.500 295.770 C 226.297 295.770,225.805 295.899,226.406 296.056 M244.851 297.317 C 245.628 297.467,246.753 297.461,247.351 297.304 C 247.949 297.148,247.313 297.026,245.938 297.033 C 244.563 297.040,244.074 297.168,244.851 297.317 M53.908 300.313 C 53.915 301.688,54.043 302.176,54.192 301.399 C 54.342 300.622,54.336 299.497,54.179 298.899 C 54.023 298.301,53.901 298.938,53.908 300.313 M290.156 300.431 C 290.758 300.588,291.742 300.588,292.344 300.431 C 292.945 300.274,292.453 300.145,291.250 300.145 C 290.047 300.145,289.555 300.274,290.156 300.431 M308.281 301.681 C 308.883 301.838,309.867 301.838,310.469 301.681 C 311.070 301.524,310.578 301.395,309.375 301.395 C 308.172 301.395,307.680 301.524,308.281 301.681 M325.156 302.931 C 325.758 303.088,326.742 303.088,327.344 302.931 C 327.945 302.774,327.453 302.645,326.250 302.645 C 325.047 302.645,324.555 302.774,325.156 302.931 M91.563 388.750 C 92.905 390.125,94.144 391.250,94.316 391.250 C 94.488 391.250,93.530 390.125,92.188 388.750 C 90.845 387.375,89.606 386.250,89.434 386.250 C 89.262 386.250,90.220 387.375,91.563 388.750 M96.875 394.063 C 98.041 395.266,99.136 396.250,99.308 396.250 C 99.480 396.250,98.666 395.266,97.500 394.063 C 96.334 392.859,95.239 391.875,95.067 391.875 C 94.895 391.875,95.709 392.859,96.875 394.063 M6.563 430.625 C 8.255 432.344,9.781 433.750,9.953 433.750 C 10.125 433.750,8.880 432.344,7.188 430.625 C 5.495 428.906,3.969 427.500,3.797 427.500 C 3.625 427.500,4.870 428.906,6.563 430.625 M93.125 517.188 C 138.671 562.734,176.076 600.000,176.248 600.000 C 176.420 600.000,139.296 562.734,93.750 517.188 C 48.204 471.641,10.799 434.375,10.627 434.375 C 10.455 434.375,47.579 471.641,93.125 517.188 M244.023 579.531 L 242.188 581.563 244.219 579.727 C 246.112 578.016,246.537 577.500,246.054 577.500 C 245.947 577.500,245.033 578.414,244.023 579.531 M231.523 592.031 L 229.688 594.063 231.719 592.227 C 233.612 590.516,234.037 590.000,233.554 590.000 C 233.447 590.000,232.533 590.914,231.523 592.031 M224.648 598.906 L 222.813 600.938 224.844 599.102 C 226.737 597.391,227.162 596.875,226.679 596.875 C 226.572 596.875,225.658 597.789,224.648 598.906 M217.813 603.750 C 216.781 604.433,216.219 604.987,216.563 604.982 C 217.189 604.972,220.587 602.536,220.000 602.518 C 219.828 602.513,218.844 603.067,217.813 603.750 " stroke="none" fill="#f7a093" fill-rule="evenodd"></path><path id="path4" d="M176.250 155.948 C 159.312 158.046,143.871 162.755,129.063 170.342 C 125.281 172.279,121.743 174.260,121.201 174.744 C 120.658 175.229,120.022 175.625,119.788 175.625 C 119.364 175.625,115.629 178.143,109.689 182.432 C 83.176 201.580,61.644 236.168,56.341 268.125 C 54.445 279.552,54.203 282.492,54.235 293.750 C 54.473 379.244,130.481 443.801,214.688 430.028 C 216.750 429.691,219.422 429.245,220.625 429.037 C 231.837 427.102,254.564 418.165,263.247 412.278 C 264.383 411.507,265.739 410.714,266.260 410.514 C 273.464 407.756,293.597 388.883,303.480 375.625 C 318.225 355.842,329.917 324.534,329.995 304.625 C 330.000 303.248,326.030 302.695,308.125 301.581 C 305.203 301.399,296.906 300.823,289.688 300.301 C 282.469 299.779,272.484 299.069,267.500 298.724 C 246.256 297.253,225.176 295.806,213.594 295.023 C 194.527 293.735,192.465 293.543,192.636 293.080 C 192.733 292.817,194.606 290.598,196.799 288.149 C 198.992 285.701,201.804 282.469,203.049 280.968 C 205.814 277.634,216.379 265.433,216.875 265.000 C 217.196 264.720,223.519 257.421,231.250 248.407 C 232.797 246.603,236.485 242.357,239.446 238.970 C 242.407 235.583,246.900 230.422,249.430 227.500 C 251.960 224.578,254.642 221.484,255.391 220.625 C 256.139 219.766,261.737 213.297,267.831 206.250 C 273.925 199.203,279.719 192.531,280.706 191.423 C 283.154 188.674,283.229 188.814,276.719 183.904 C 247.103 161.568,211.305 151.607,176.250 155.948 M361.563 162.167 C 360.188 162.618,356.813 163.611,354.063 164.375 C 345.092 166.868,340.257 168.474,331.563 171.850 C 301.860 183.384,268.834 213.164,250.787 244.688 C 248.850 248.070,248.052 249.720,245.343 255.938 C 242.291 262.941,236.411 288.494,237.582 289.665 C 237.926 290.009,247.899 290.872,263.125 291.874 C 268.797 292.248,278.781 292.948,285.313 293.431 C 303.611 294.783,316.117 295.604,321.103 295.778 L 325.644 295.938 328.039 290.558 C 332.665 280.167,341.269 270.342,352.090 263.092 L 357.950 259.167 358.683 248.802 C 359.087 243.102,359.819 232.953,360.309 226.250 C 360.800 219.547,361.508 209.422,361.881 203.750 C 362.254 198.078,362.818 189.922,363.133 185.625 C 363.449 181.328,363.872 174.859,364.073 171.250 C 364.275 167.641,364.589 163.914,364.770 162.969 C 365.139 161.044,365.056 161.023,361.563 162.167 M155.107 218.831 C 180.234 224.220,183.008 257.912,159.063 266.870 C 145.275 272.028,129.182 263.188,126.199 248.817 C 122.567 231.323,138.122 215.189,155.107 218.831 " stroke="none" fill="#fefeff" fill-rule="evenodd"></path></g></svg>