<svg id="svg" version="1.1" width="640" height="1000" xmlns="http://www.w3.org/2000/svg" xmlns:xlink="http://www.w3.org/1999/xlink" style="display: block;"><g id="svgg"><path id="path0" d="" stroke="none" fill="#000000" fill-rule="evenodd"></path><path id="path1" d="M180.625 1.574 C 176.328 2.020,170.281 2.849,167.188 3.416 C 164.094 3.983,160.156 4.697,158.438 5.002 C 141.268 8.058,116.046 17.856,98.438 28.312 C 92.437 31.875,81.275 39.196,80.625 39.995 C 80.453 40.206,79.188 41.207,77.813 42.221 C 76.438 43.234,75.003 44.344,74.624 44.688 C 74.245 45.031,72.557 46.421,70.874 47.777 C 38.439 73.885,12.524 117.947,3.766 161.875 C 0.168 179.927,0.377 171.711,0.174 303.125 L -0.012 424.063 88.693 512.813 C 137.480 561.625,177.571 601.482,177.784 601.384 C 177.996 601.286,178.626 601.662,179.185 602.220 C 182.321 605.357,193.052 610.685,196.525 610.831 C 197.921 610.890,199.273 611.219,199.531 611.563 C 199.844 611.979,200.156 611.979,200.469 611.563 C 200.727 611.219,202.005 610.904,203.309 610.864 C 205.955 610.782,210.625 608.906,210.625 607.926 C 210.625 607.577,210.801 607.468,211.017 607.683 C 211.542 608.209,214.402 606.685,219.688 603.062 C 222.764 600.953,250.120 573.994,311.875 512.210 L 399.688 424.357 399.688 308.585 C 399.688 189.224,399.644 182.500,398.880 182.500 C 398.632 182.500,398.532 181.199,398.659 179.608 C 398.785 178.017,398.646 176.865,398.351 177.048 C 398.055 177.231,397.911 176.142,398.032 174.628 C 398.175 172.831,397.999 171.875,397.526 171.875 C 397.127 171.875,396.985 171.577,397.210 171.214 C 397.667 170.474,394.929 154.971,394.399 155.296 C 394.214 155.409,394.034 154.713,393.999 153.748 C 393.907 151.216,390.510 139.372,389.971 139.706 C 389.721 139.860,389.529 139.638,389.544 139.212 C 389.619 137.124,389.327 135.581,388.906 135.841 C 388.648 136.000,388.393 135.392,388.339 134.490 C 388.285 133.589,387.931 132.748,387.554 132.622 C 387.176 132.496,387.016 132.153,387.197 131.860 C 387.626 131.166,383.241 120.205,382.063 119.028 C 381.567 118.531,381.307 118.125,381.485 118.125 C 381.664 118.125,381.516 117.282,381.157 116.251 C 380.788 115.194,380.215 114.555,379.843 114.785 C 379.461 115.021,379.366 114.896,379.616 114.490 C 380.063 113.768,378.418 109.990,377.359 109.305 C 377.034 109.095,376.792 108.743,376.822 108.524 C 376.967 107.438,376.777 107.006,375.601 105.743 C 374.900 104.991,374.502 104.375,374.717 104.375 C 375.172 104.375,371.200 97.087,368.757 93.438 C 367.836 92.063,365.859 89.109,364.364 86.875 C 360.654 81.333,358.978 79.364,358.407 79.878 C 358.142 80.117,358.113 79.984,358.343 79.582 C 358.573 79.180,358.407 78.477,357.974 78.019 C 357.542 77.562,355.615 75.219,353.692 72.813 C 345.484 62.538,322.768 41.294,321.045 42.281 C 320.642 42.512,320.508 42.483,320.747 42.218 C 321.821 41.025,297.682 25.052,296.194 25.972 C 295.881 26.165,295.625 26.033,295.625 25.678 C 295.625 25.323,294.781 24.596,293.750 24.063 C 292.719 23.529,291.875 23.252,291.875 23.446 C 291.875 23.640,291.259 23.225,290.507 22.524 C 289.281 21.382,288.093 20.959,286.719 21.176 C 286.461 21.217,286.250 21.014,286.250 20.725 C 286.250 20.071,283.082 18.584,282.637 19.029 C 282.458 19.209,282.002 18.985,281.624 18.532 C 280.620 17.327,269.587 12.920,268.797 13.408 C 268.427 13.637,268.125 13.540,268.125 13.193 C 268.125 12.417,254.535 7.953,253.715 8.459 C 253.390 8.660,253.125 8.559,253.125 8.235 C 253.125 7.911,252.492 7.502,251.719 7.327 C 236.304 3.836,223.806 1.679,220.707 1.974 C 219.345 2.104,218.338 2.035,218.471 1.821 C 219.255 0.552,192.161 0.374,180.625 1.574 M248.614 128.461 C 250.893 129.403,272.500 150.253,272.500 151.510 C 272.500 151.832,271.506 153.539,270.291 155.304 C 264.540 163.653,262.779 178.114,266.324 187.876 C 274.597 210.661,301.412 220.180,321.532 207.473 C 326.604 204.270,325.092 203.474,337.339 215.793 C 355.552 234.115,355.648 233.522,330.387 258.714 L 313.188 275.866 309.756 272.620 C 305.680 268.765,302.022 268.120,299.494 270.811 C 296.402 274.102,297.214 277.902,301.916 282.150 L 304.537 284.518 285.454 303.665 C 274.958 314.196,239.976 349.354,207.716 381.794 C 143.970 445.897,145.385 444.590,139.724 444.620 C 134.336 444.648,132.982 443.729,121.094 431.981 C 109.849 420.868,109.878 420.913,112.118 417.927 C 132.788 390.374,105.229 350.590,71.875 359.834 C 68.158 360.864,60.339 364.571,59.699 365.606 C 58.089 368.212,57.280 367.669,46.185 356.533 C 32.710 343.008,31.262 340.196,34.372 333.587 C 35.275 331.667,57.372 309.185,114.611 251.949 L 193.604 172.960 196.021 175.645 C 199.692 179.724,200.072 180.058,201.768 180.703 C 204.147 181.608,206.712 180.755,208.445 178.483 C 211.013 175.116,210.261 172.794,205.014 167.886 C 203.242 166.229,201.882 164.780,201.990 164.666 C 208.305 158.023,235.518 130.924,236.982 129.820 C 240.276 127.338,244.659 126.825,248.614 128.461 M217.065 186.848 C 213.070 189.283,213.502 193.491,218.226 198.166 C 222.684 202.577,225.941 202.997,229.116 199.571 C 234.127 194.164,223.489 182.931,217.065 186.848 M237.030 208.281 C 233.973 211.557,234.704 215.053,239.365 219.451 C 244.876 224.652,251.250 223.212,251.250 216.767 C 251.250 210.451,240.817 204.225,237.030 208.281 M258.313 228.608 C 254.855 231.326,255.330 235.730,259.522 239.825 C 263.899 244.099,268.056 244.686,270.644 241.396 C 275.311 235.463,264.223 223.963,258.313 228.608 M280.205 249.036 C 274.619 251.466,276.720 259.742,283.875 263.491 C 291.461 267.465,295.774 258.851,289.494 252.271 C 285.894 248.500,283.420 247.638,280.205 249.036 " stroke="none" fill="#21bbd2" fill-rule="evenodd"></path><path id="path2" d="M240.313 127.949 C 238.033 128.503,219.366 146.388,201.990 164.666 C 201.882 164.780,203.242 166.229,205.014 167.886 C 210.261 172.794,211.013 175.116,208.445 178.483 C 206.712 180.755,204.147 181.608,201.768 180.703 C 200.072 180.058,199.692 179.724,196.021 175.645 L 193.604 172.960 114.611 251.949 C 57.372 309.185,35.275 331.667,34.372 333.587 C 31.262 340.196,32.710 343.008,46.185 356.533 C 57.280 367.669,58.089 368.212,59.699 365.606 C 60.339 364.571,68.158 360.864,71.875 359.834 C 105.229 350.590,132.788 390.374,112.118 417.927 C 109.878 420.913,109.849 420.868,121.094 431.981 C 132.982 443.729,134.336 444.648,139.724 444.620 C 145.385 444.590,143.970 445.897,207.716 381.794 C 239.976 349.354,274.958 314.196,285.454 303.665 L 304.537 284.518 301.916 282.150 C 297.214 277.902,296.402 274.102,299.494 270.811 C 302.022 268.120,305.680 268.765,309.756 272.620 L 313.188 275.866 330.387 258.714 C 355.648 233.522,355.552 234.115,337.339 215.793 C 325.092 203.474,326.604 204.270,321.532 207.473 C 301.412 220.180,274.597 210.661,266.324 187.876 C 262.779 178.114,264.540 163.653,270.291 155.304 C 273.204 151.074,273.923 152.343,261.719 140.173 C 249.202 127.691,246.865 126.357,240.313 127.949 M223.075 186.537 C 230.990 190.630,232.784 199.900,225.991 201.605 C 222.751 202.418,215.933 197.674,214.683 193.737 C 213.032 188.533,218.260 184.047,223.075 186.537 M247.626 210.602 C 251.946 215.045,252.516 217.938,249.639 220.815 C 243.389 227.066,230.996 214.746,237.030 208.281 C 239.684 205.438,243.394 206.251,247.626 210.602 M268.175 231.200 C 273.422 236.447,273.110 242.222,267.519 243.340 C 262.046 244.435,254.464 236.321,256.318 231.353 C 258.251 226.172,263.085 226.110,268.175 231.200 M285.176 248.990 C 292.234 252.025,295.142 260.778,289.979 263.448 C 283.768 266.660,274.276 257.274,277.549 251.158 C 278.852 248.725,282.288 247.748,285.176 248.990 " stroke="none" fill="#fefeff" fill-rule="evenodd"></path></g></svg>