<svg id="svg" version="1.1" width="640" height="1000" xmlns="http://www.w3.org/2000/svg" xmlns:xlink="http://www.w3.org/1999/xlink" style="display: block;"><g id="svgg"><path id="path0" d="" stroke="none" fill="#6d210f" fill-rule="evenodd"></path><path id="path1" d="" stroke="none" fill="#ff0000" fill-rule="evenodd"></path><path id="path2" d="M100.799 115.156 C 99.681 116.601,99.298 117.500,99.807 117.480 C 100.526 117.452,102.680 114.375,101.981 114.375 C 101.663 114.375,101.131 114.727,100.799 115.156 M100.625 154.688 C 100.191 155.210,100.123 155.625,100.472 155.625 C 100.816 155.625,101.447 155.203,101.875 154.688 C 102.309 154.165,102.377 153.750,102.028 153.750 C 101.684 153.750,101.053 154.172,100.625 154.688 " stroke="none" fill="#aca092" fill-rule="evenodd"></path><path id="path3" d="M188.118 1.094 C 188.115 1.352,185.435 1.629,182.163 1.710 C 178.891 1.791,172.917 2.440,168.888 3.152 C 164.859 3.864,160.156 4.697,158.438 5.002 C 141.283 8.055,116.312 17.763,98.438 28.329 C 92.479 31.851,81.287 39.181,80.625 39.995 C 80.453 40.206,79.188 41.207,77.813 42.221 C 76.438 43.234,75.003 44.344,74.624 44.688 C 74.245 45.031,72.557 46.421,70.874 47.777 C 38.467 73.863,12.516 117.984,3.766 161.875 C 0.168 179.927,0.377 171.711,0.174 303.125 L -0.012 424.063 88.639 512.762 C 137.396 561.546,177.498 601.395,177.754 601.314 C 178.010 601.234,178.691 601.681,179.266 602.308 C 180.724 603.897,186.875 607.578,188.243 607.681 C 188.866 607.728,189.375 607.945,189.375 608.163 C 189.375 608.922,194.314 610.782,195.311 610.399 C 195.959 610.151,196.161 610.263,195.881 610.716 C 195.583 611.198,196.058 611.328,197.396 611.132 C 198.468 610.975,199.471 611.148,199.625 611.517 C 199.810 611.960,200.080 611.975,200.421 611.563 C 200.705 611.219,202.005 610.904,203.309 610.864 C 205.955 610.782,210.625 608.906,210.625 607.926 C 210.625 607.577,210.801 607.468,211.017 607.683 C 211.542 608.209,214.402 606.685,219.688 603.062 C 222.764 600.953,250.120 573.994,311.875 512.210 L 399.688 424.357 399.688 308.585 C 399.688 189.224,399.644 182.500,398.880 182.500 C 398.632 182.500,398.532 181.199,398.659 179.608 C 398.785 178.017,398.646 176.865,398.351 177.048 C 398.055 177.231,397.911 176.142,398.032 174.628 C 398.175 172.831,397.999 171.875,397.526 171.875 C 397.127 171.875,396.985 171.577,397.210 171.214 C 397.749 170.342,394.879 155.001,394.250 155.390 C 393.983 155.555,393.927 155.267,394.125 154.750 C 394.323 154.233,394.269 153.459,394.004 153.030 C 393.739 152.601,393.480 151.674,393.429 150.969 C 393.255 148.593,390.444 139.413,389.978 139.701 C 389.724 139.858,389.529 139.638,389.544 139.212 C 389.619 137.124,389.327 135.581,388.906 135.841 C 388.648 136.000,388.393 135.392,388.339 134.490 C 388.285 133.589,387.931 132.748,387.554 132.622 C 387.176 132.496,387.016 132.153,387.197 131.860 C 387.626 131.166,383.241 120.205,382.063 119.028 C 381.567 118.531,381.307 118.125,381.485 118.125 C 381.664 118.125,381.516 117.282,381.157 116.251 C 380.788 115.194,380.215 114.555,379.843 114.785 C 379.470 115.015,379.365 114.897,379.601 114.514 C 380.168 113.597,378.080 109.329,377.300 109.811 C 376.954 110.025,376.878 109.876,377.127 109.473 C 377.626 108.666,375.686 105.000,374.761 105.000 C 374.434 105.000,374.353 104.814,374.580 104.586 C 375.007 104.160,371.712 97.851,368.757 93.438 C 367.836 92.063,365.859 89.109,364.364 86.875 C 360.654 81.333,358.978 79.364,358.407 79.878 C 358.142 80.117,358.113 79.984,358.343 79.582 C 358.573 79.180,358.404 78.477,357.966 78.019 C 357.529 77.562,355.960 75.641,354.479 73.750 C 350.533 68.709,336.754 54.375,335.856 54.375 C 335.431 54.375,334.912 53.883,334.702 53.281 C 334.226 51.920,322.638 42.292,321.475 42.292 C 321.008 42.292,320.750 42.167,320.903 42.014 C 321.898 41.018,297.490 25.171,296.194 25.972 C 295.881 26.165,295.625 26.029,295.625 25.670 C 295.625 24.861,287.172 20.536,286.637 21.071 C 286.424 21.284,286.250 21.175,286.250 20.829 C 286.250 20.101,283.123 18.543,282.637 19.029 C 282.458 19.209,282.002 18.985,281.624 18.532 C 280.620 17.327,269.587 12.920,268.797 13.408 C 268.427 13.637,268.125 13.553,268.125 13.223 C 268.125 12.479,264.436 11.138,263.678 11.607 C 263.374 11.795,263.125 11.618,263.125 11.214 C 263.125 10.787,262.601 10.616,261.874 10.806 C 261.186 10.986,260.755 10.920,260.916 10.660 C 261.298 10.041,256.411 8.577,255.612 9.070 C 255.275 9.279,255.000 9.121,255.000 8.720 C 255.000 8.319,254.578 8.153,254.063 8.351 C 253.547 8.549,253.125 8.471,253.125 8.178 C 253.125 7.588,253.333 7.644,242.813 5.432 C 235.167 3.824,234.713 3.752,230.997 3.552 C 229.827 3.489,229.022 3.191,229.207 2.890 C 229.393 2.590,228.543 2.460,227.317 2.604 C 226.091 2.747,225.242 2.615,225.430 2.310 C 225.619 2.004,224.092 1.853,222.006 1.972 C 219.935 2.091,218.395 1.940,218.583 1.637 C 218.772 1.332,217.216 1.211,215.087 1.365 C 212.977 1.517,211.250 1.413,211.250 1.134 C 211.250 0.299,206.383 0.554,206.039 1.406 C 205.787 2.031,205.714 2.031,205.674 1.406 C 205.619 0.536,188.131 0.225,188.118 1.094 M111.221 116.081 C 112.440 117.410,113.837 119.257,114.324 120.186 C 114.812 121.115,115.445 121.875,115.731 121.875 C 116.016 121.875,116.250 122.306,116.250 122.832 C 116.250 123.359,116.672 123.951,117.188 124.149 C 117.703 124.347,118.125 124.901,118.125 125.379 C 118.125 125.858,118.406 126.250,118.750 126.250 C 119.094 126.250,119.379 126.602,119.385 127.031 C 119.390 127.461,120.264 128.797,121.327 130.000 C 122.389 131.203,126.485 136.758,130.428 142.344 L 137.598 152.500 217.080 152.502 C 306.743 152.505,299.770 152.115,301.176 157.208 C 301.955 160.031,301.367 161.714,298.082 166.067 C 296.730 167.857,295.625 169.585,295.625 169.906 C 295.625 170.228,295.203 170.653,294.688 170.851 C 294.172 171.049,293.750 171.641,293.750 172.168 C 293.750 172.694,293.503 173.125,293.200 173.125 C 292.587 173.125,287.500 179.660,287.500 180.448 C 287.500 180.724,286.910 181.318,286.189 181.768 C 285.468 182.218,285.007 182.715,285.164 182.873 C 285.322 183.030,284.505 184.190,283.350 185.451 C 282.195 186.713,281.250 188.044,281.250 188.409 C 281.250 188.775,280.677 189.432,279.976 189.870 C 279.275 190.308,278.851 190.908,279.035 191.205 C 279.218 191.501,278.948 191.905,278.434 192.102 C 277.920 192.300,277.500 192.891,277.500 193.418 C 277.500 193.944,277.210 194.375,276.855 194.375 C 276.501 194.375,276.033 194.867,275.816 195.469 C 275.419 196.570,274.365 197.900,272.344 199.848 C 271.742 200.428,271.250 201.262,271.250 201.701 C 271.250 202.141,271.007 202.500,270.710 202.500 C 270.413 202.500,269.359 203.695,268.368 205.156 C 267.377 206.617,266.214 208.037,265.783 208.312 C 265.352 208.587,265.000 209.220,265.000 209.719 C 265.000 210.217,264.757 210.625,264.460 210.625 C 264.163 210.625,263.108 211.820,262.116 213.281 C 261.124 214.742,260.005 216.219,259.629 216.563 C 258.345 217.736,226.250 259.923,226.250 260.437 C 226.250 260.719,225.660 261.318,224.939 261.768 C 224.218 262.218,223.784 262.743,223.975 262.933 C 224.166 263.124,223.701 263.798,222.942 264.432 C 222.183 265.065,221.836 265.593,222.170 265.604 C 222.505 265.616,222.153 266.063,221.389 266.598 C 220.625 267.133,220.000 267.947,220.000 268.406 C 220.000 268.865,219.578 269.403,219.063 269.601 C 218.547 269.799,218.125 270.361,218.125 270.851 C 218.125 271.341,217.703 271.903,217.188 272.101 C 216.672 272.299,216.250 272.891,216.250 273.418 C 216.250 273.944,215.973 274.375,215.634 274.375 C 215.295 274.375,214.243 275.570,213.296 277.031 C 212.349 278.492,211.220 279.912,210.787 280.187 C 210.354 280.462,210.000 281.095,210.000 281.594 C 210.000 282.092,209.757 282.500,209.460 282.500 C 209.163 282.500,208.177 283.572,207.270 284.882 L 205.619 287.263 205.778 352.225 L 205.938 417.188 226.974 417.352 L 248.010 417.516 250.011 419.796 C 252.615 422.761,252.382 426.245,249.404 428.906 L 247.480 430.625 198.990 430.625 L 150.500 430.625 148.375 428.500 C 146.011 426.136,145.616 423.664,147.134 420.728 C 148.753 417.598,149.450 417.502,171.563 417.339 L 192.188 417.188 192.188 351.668 C 192.188 289.990,192.123 286.102,191.094 285.349 C 190.492 284.910,190.000 284.220,190.000 283.818 C 190.000 283.415,189.578 282.924,189.063 282.726 C 188.547 282.528,188.121 282.045,188.115 281.652 C 188.110 281.259,187.269 279.953,186.247 278.750 C 185.225 277.547,184.104 276.223,183.757 275.808 C 183.409 275.392,183.125 274.751,183.125 274.382 C 183.125 274.013,182.703 273.549,182.188 273.351 C 181.672 273.153,181.250 272.591,181.250 272.101 C 181.250 271.611,180.828 271.049,180.313 270.851 C 179.797 270.653,179.367 270.170,179.358 269.777 C 179.348 269.384,178.512 268.250,177.500 267.257 C 176.487 266.263,175.800 265.223,175.972 264.944 C 176.144 264.666,175.715 264.132,175.018 263.759 C 174.320 263.386,173.750 262.669,173.750 262.166 C 173.750 261.662,173.469 261.250,173.125 261.250 C 172.781 261.250,172.500 260.828,172.500 260.313 C 172.500 259.797,172.212 259.375,171.860 259.375 C 171.507 259.375,170.952 258.672,170.625 257.813 C 170.298 256.953,169.726 256.250,169.354 256.250 C 168.981 256.250,168.838 255.988,169.036 255.668 C 169.234 255.348,168.766 254.644,167.996 254.105 C 167.227 253.566,166.870 253.116,167.205 253.104 C 167.539 253.093,167.149 252.530,166.337 251.854 C 165.525 251.178,165.104 250.616,165.400 250.604 C 165.695 250.593,165.234 249.999,164.375 249.284 C 163.516 248.569,162.951 247.945,163.120 247.898 C 163.602 247.764,159.226 241.875,158.644 241.875 C 158.359 241.875,158.125 241.555,158.125 241.163 C 158.125 240.273,144.898 222.500,144.235 222.500 C 143.968 222.500,143.750 222.078,143.750 221.563 C 143.750 221.047,143.469 220.625,143.125 220.625 C 142.781 220.625,142.500 220.266,142.500 219.827 C 142.500 219.388,141.697 218.149,140.715 217.074 C 139.733 215.999,138.757 214.671,138.547 214.122 C 138.336 213.574,137.874 213.125,137.520 213.125 C 137.165 213.125,136.875 212.694,136.875 212.168 C 136.875 211.641,136.453 211.049,135.938 210.851 C 135.422 210.653,135.000 210.091,135.000 209.601 C 135.000 209.111,134.578 208.549,134.063 208.351 C 133.547 208.153,133.125 207.623,133.125 207.173 C 133.125 206.723,132.864 206.260,132.546 206.146 C 132.227 206.031,126.474 198.484,119.760 189.375 C 113.046 180.266,107.328 172.531,107.053 172.188 C 106.778 171.844,106.015 170.726,105.358 169.704 C 104.700 168.681,103.924 167.556,103.632 167.204 C 103.341 166.851,102.537 165.878,101.846 165.041 C 101.156 164.204,100.415 162.798,100.199 161.916 C 99.984 161.034,99.517 160.123,99.163 159.891 C 98.734 159.612,98.785 159.149,99.313 158.513 C 99.750 157.986,99.926 157.261,99.704 156.902 C 99.483 156.544,99.599 156.250,99.963 156.250 C 100.327 156.250,100.555 155.935,100.469 155.550 C 100.029 153.580,103.934 152.592,112.344 152.546 C 116.898 152.521,120.625 152.349,120.625 152.165 C 120.625 151.980,115.984 145.245,110.313 137.197 C 104.641 129.149,100.000 122.184,100.000 121.720 C 100.000 121.255,99.651 120.526,99.224 120.099 C 98.606 119.481,98.613 119.221,99.257 118.823 C 99.702 118.548,100.018 118.067,99.959 117.755 C 99.052 112.942,107.226 111.727,111.221 116.081 M119.813 166.094 C 119.669 166.352,124.882 173.734,131.396 182.500 C 137.910 191.266,146.627 203.078,150.766 208.750 C 154.905 214.422,158.623 219.344,159.028 219.688 C 159.433 220.031,159.950 220.805,160.175 221.406 C 160.401 222.008,160.876 222.500,161.230 222.500 C 161.585 222.500,161.875 222.799,161.875 223.165 C 161.875 223.743,196.388 270.801,198.437 273.017 C 199.194 273.836,209.375 261.741,209.375 260.024 C 209.375 259.667,209.590 259.375,209.852 259.375 C 210.471 259.375,215.625 252.781,215.625 251.989 C 215.625 251.656,216.047 251.222,216.563 251.024 C 217.078 250.826,217.500 250.264,217.500 249.774 C 217.500 249.284,217.922 248.722,218.438 248.524 C 218.953 248.326,219.375 247.910,219.375 247.598 C 219.375 247.287,220.359 245.957,221.563 244.644 C 222.766 243.330,223.750 241.919,223.750 241.507 C 223.750 241.096,224.172 240.597,224.688 240.399 C 225.203 240.201,225.625 239.676,225.625 239.232 C 225.625 238.789,226.215 238.057,226.936 237.607 C 227.657 237.157,228.080 236.622,227.877 236.419 C 227.674 236.216,228.069 235.657,228.754 235.177 C 229.439 234.697,230.000 233.928,230.000 233.469 C 230.000 233.010,230.422 232.472,230.938 232.274 C 231.453 232.076,231.875 231.551,231.875 231.107 C 231.875 230.664,232.448 229.943,233.149 229.505 C 233.850 229.067,234.274 228.467,234.090 228.170 C 233.907 227.874,234.177 227.470,234.691 227.273 C 235.205 227.075,235.625 226.484,235.625 225.957 C 235.625 225.431,235.915 225.000,236.270 225.000 C 236.624 225.000,237.092 224.508,237.309 223.906 C 237.706 222.805,238.760 221.475,240.781 219.527 C 241.383 218.947,241.875 218.253,241.875 217.986 C 241.875 217.719,242.367 216.984,242.969 216.353 C 243.570 215.722,244.484 214.554,245.000 213.756 C 245.516 212.958,246.430 211.865,247.031 211.326 C 247.633 210.788,248.125 210.018,248.125 209.615 C 248.125 209.213,248.547 208.722,249.063 208.524 C 249.578 208.326,250.000 207.796,250.000 207.346 C 250.000 206.896,250.492 206.063,251.094 205.495 C 253.297 203.416,278.750 170.253,278.750 169.462 C 278.750 169.144,279.172 168.722,279.688 168.524 C 280.203 168.326,280.625 167.593,280.625 166.895 C 280.625 165.582,148.704 164.786,147.917 166.094 C 147.761 166.352,149.995 169.878,152.880 173.930 C 155.765 177.982,158.125 181.568,158.125 181.899 C 158.125 182.230,158.342 182.500,158.608 182.500 C 158.873 182.500,159.621 183.484,160.269 184.688 C 160.917 185.891,161.684 186.875,161.973 186.875 C 162.263 186.875,162.500 187.176,162.500 187.545 C 162.500 187.913,162.852 188.585,163.281 189.038 C 164.159 189.963,166.090 192.578,167.500 194.751 C 168.016 195.545,174.618 204.856,182.171 215.441 C 200.443 241.047,200.000 240.363,200.000 242.938 C 200.000 246.022,196.639 249.375,193.548 249.375 C 190.138 249.375,188.537 247.581,175.523 229.181 C 168.912 219.834,156.075 201.711,146.995 188.906 L 130.487 165.625 125.281 165.625 C 122.417 165.625,119.956 165.836,119.813 166.094 " stroke="none" fill="#fd9526" fill-rule="evenodd"></path><path id="path4" d="M104.058 113.546 C 102.239 113.910,100.000 117.516,100.000 120.081 C 100.000 122.405,99.667 121.880,114.147 142.350 L 121.106 152.188 112.375 152.500 L 103.645 152.813 101.822 154.854 C 99.535 157.416,99.256 161.756,101.250 163.750 C 101.938 164.437,102.500 165.251,102.500 165.558 C 102.500 165.865,102.922 166.278,103.438 166.476 C 103.953 166.674,104.375 167.266,104.375 167.793 C 104.375 168.319,104.656 168.750,105.000 168.750 C 105.344 168.750,105.625 169.181,105.625 169.707 C 105.625 170.234,106.047 170.826,106.563 171.024 C 107.078 171.222,107.500 171.762,107.500 172.223 C 107.500 172.685,107.992 173.350,108.594 173.700 C 109.195 174.050,109.464 174.346,109.191 174.356 C 108.714 174.374,115.700 184.026,117.122 185.313 C 117.502 185.656,118.198 186.685,118.669 187.599 C 119.140 188.513,120.295 190.103,121.235 191.133 C 122.176 192.163,123.118 193.454,123.328 194.003 C 123.539 194.551,124.001 195.000,124.355 195.000 C 124.710 195.000,125.000 195.431,125.000 195.957 C 125.000 196.484,125.422 197.076,125.938 197.274 C 126.453 197.472,126.875 198.034,126.875 198.524 C 126.875 199.014,127.297 199.576,127.813 199.774 C 128.328 199.972,128.750 200.495,128.750 200.938 C 128.750 201.380,129.172 201.903,129.688 202.101 C 130.203 202.299,130.625 202.868,130.625 203.366 C 130.625 203.864,130.875 204.365,131.180 204.479 C 131.933 204.762,171.946 258.750,171.403 258.750 C 171.166 258.750,171.597 259.188,172.361 259.723 C 173.125 260.258,173.750 261.105,173.750 261.604 C 173.750 262.104,174.313 262.994,175.000 263.583 C 175.688 264.171,176.250 264.998,176.250 265.420 C 176.250 265.842,176.631 266.413,177.097 266.688 C 177.562 266.963,181.218 271.616,185.222 277.028 L 192.500 286.869 192.500 352.185 L 192.500 417.500 171.610 417.500 L 150.721 417.500 148.844 419.079 C 145.367 422.005,145.935 427.585,149.920 429.646 C 152.733 431.101,245.328 431.134,248.138 429.681 C 250.183 428.623,251.059 427.307,251.256 425.000 C 251.511 421.992,251.236 421.140,249.423 419.327 L 247.596 417.500 226.611 417.500 L 205.625 417.500 205.625 352.160 L 205.625 286.820 211.641 278.879 C 214.950 274.511,231.118 253.359,247.571 231.875 C 306.319 155.161,301.250 162.013,301.250 159.314 C 301.250 157.524,300.776 156.364,299.426 154.854 L 297.603 152.813 218.020 152.662 C 137.209 152.509,135.625 152.463,135.625 150.298 C 135.625 149.891,134.922 148.799,134.063 147.872 C 133.203 146.944,132.500 145.919,132.500 145.593 C 132.500 145.267,132.219 145.000,131.875 145.000 C 131.531 145.000,131.250 144.608,131.250 144.129 C 131.250 143.651,130.828 143.097,130.313 142.899 C 129.797 142.701,129.375 142.109,129.375 141.582 C 129.375 141.056,129.094 140.625,128.750 140.625 C 128.406 140.625,128.125 140.233,128.125 139.754 C 128.125 139.276,127.703 138.722,127.188 138.524 C 126.672 138.326,126.250 137.734,126.250 137.207 C 126.250 136.681,125.969 136.250,125.625 136.250 C 125.281 136.250,125.000 135.858,125.000 135.379 C 125.000 134.901,124.578 134.347,124.063 134.149 C 123.547 133.951,123.125 133.382,123.125 132.884 C 123.125 132.386,122.898 131.885,122.620 131.771 C 122.343 131.656,119.397 127.744,116.074 123.076 C 110.514 115.268,108.183 112.970,106.064 113.210 C 105.651 113.257,104.748 113.408,104.058 113.546 M148.722 191.084 C 158.534 204.915,171.063 222.620,176.563 230.429 C 188.621 247.549,189.498 248.599,192.159 249.098 C 196.333 249.881,200.562 245.780,199.753 241.734 C 199.376 239.851,190.149 226.250,189.248 226.250 C 188.974 226.250,188.750 225.869,188.750 225.404 C 188.750 224.938,188.047 223.799,187.188 222.872 C 186.328 221.944,185.625 220.960,185.625 220.684 C 185.625 220.408,184.922 219.424,184.063 218.497 C 183.203 217.569,182.500 216.544,182.500 216.218 C 182.500 215.892,182.219 215.625,181.875 215.625 C 181.531 215.625,181.250 215.233,181.250 214.754 C 181.250 214.276,180.828 213.722,180.313 213.524 C 179.797 213.326,179.375 212.734,179.375 212.207 C 179.375 211.681,179.094 211.250,178.750 211.250 C 178.406 211.250,178.125 210.828,178.125 210.313 C 178.125 209.797,177.844 209.375,177.500 209.375 C 177.156 209.375,176.875 208.944,176.875 208.418 C 176.875 207.891,176.453 207.299,175.938 207.101 C 175.422 206.903,175.000 206.349,175.000 205.871 C 175.000 205.392,174.719 205.000,174.375 205.000 C 174.031 205.000,173.750 204.569,173.750 204.043 C 173.750 203.516,173.328 202.924,172.813 202.726 C 172.297 202.528,171.875 201.974,171.875 201.496 C 171.875 201.017,171.594 200.625,171.250 200.625 C 170.906 200.625,170.625 200.233,170.625 199.754 C 170.625 199.276,170.203 198.722,169.688 198.524 C 169.172 198.326,168.750 197.734,168.750 197.207 C 168.750 196.681,168.469 196.250,168.125 196.250 C 167.781 196.250,167.500 195.858,167.500 195.379 C 167.500 194.901,167.078 194.347,166.563 194.149 C 166.047 193.951,165.625 193.359,165.625 192.832 C 165.625 192.306,165.344 191.875,165.000 191.875 C 164.656 191.875,164.375 191.483,164.375 191.004 C 164.375 190.526,163.953 189.972,163.438 189.774 C 162.922 189.576,162.500 188.984,162.500 188.457 C 162.500 187.931,162.219 187.500,161.875 187.500 C 161.531 187.500,161.250 187.078,161.250 186.563 C 161.250 186.047,160.969 185.625,160.625 185.625 C 160.281 185.625,160.000 185.194,160.000 184.668 C 160.000 184.141,159.578 183.549,159.063 183.351 C 158.547 183.153,158.125 182.599,158.125 182.121 C 158.125 181.642,157.827 181.250,157.463 181.250 C 157.099 181.250,156.963 180.988,157.161 180.668 C 157.359 180.348,156.955 179.689,156.264 179.205 C 155.573 178.721,155.155 178.178,155.335 177.998 C 155.515 177.819,154.847 176.799,153.851 175.733 C 152.854 174.666,152.156 173.678,152.298 173.536 C 152.440 173.393,151.678 172.399,150.605 171.326 C 149.532 170.253,148.835 169.375,149.057 169.375 C 149.279 169.375,148.859 168.531,148.125 167.500 L 146.790 165.625 214.332 165.625 C 251.481 165.625,281.875 165.766,281.875 165.938 C 281.875 166.110,271.539 179.741,258.906 196.230 C 246.273 212.719,227.781 236.895,217.813 249.953 C 207.844 263.011,199.406 273.618,199.063 273.524 C 198.487 273.366,186.367 257.145,139.688 194.054 C 130.063 181.046,121.382 169.317,120.397 167.990 L 118.607 165.578 124.744 165.758 L 130.881 165.938 148.722 191.084 " stroke="none" fill="#fefeff" fill-rule="evenodd"></path></g></svg>